<?xml version="1.0" encoding="UTF-8"?>
<!DOCTYPE svg PUBLIC "-//W3C//DTD SVG 1.1//EN" "http://www.w3.org/Graphics/SVG/1.1/DTD/svg11.dtd">
<!-- Creator: CorelDRAW X6 -->
<svg xmlns="http://www.w3.org/2000/svg" xml:space="preserve" width="1360px" height="400px" version="1.1" style="shape-rendering:geometricPrecision; text-rendering:geometricPrecision; image-rendering:optimizeQuality; fill-rule:evenodd; clip-rule:evenodd"
viewBox="0 0 1360 400"
 xmlns:xlink="http://www.w3.org/1999/xlink">
 <defs>
  <style type="text/css">
   <![CDATA[
    .fil1 {fill:#332E2E;fill-rule:nonzero}
    .fil0 {fill:#EC1D26;fill-rule:nonzero}
   ]]>
  </style>
 </defs>
 <g id="Слой_x0020_1">
  <metadata id="CorelCorpID_0Corel-Layer"/>
  <g id="_377641360">
   <path class="fil0" d="M179 211c3,-15 5,-30 9,-45 3,-15 6,-29 9,-42 4,-13 7,-25 9,-35 3,-11 5,-19 6,-25 3,-1 6,-1 8,-2 3,0 5,0 7,0 11,0 19,3 25,8 6,5 8,11 8,20 0,2 0,6 -2,12 -1,6 -3,14 -5,22 -3,9 -5,18 -8,28 -3,11 -6,22 -9,33 -3,11 -6,23 -9,34 -3,12 -5,23 -8,33 -2,11 -4,21 -5,31 -2,9 -2,17 -2,24 0,7 0,13 2,17 2,4 4,6 8,6 6,0 12,-3 19,-8 8,-6 15,-13 22,-23 8,-9 15,-21 22,-34 8,-13 14,-27 19,-42 6,-15 11,-31 14,-47 3,-17 5,-33 5,-50 0,-1 0,-2 0,-4 0,-1 0,-2 0,-4 -1,0 -2,0 -3,0 -1,0 -2,0 -3,0 -6,0 -11,0 -15,-2 -4,-2 -7,-5 -10,-8 -3,-3 -5,-6 -6,-10 -2,-4 -2,-8 -2,-12 0,-4 0,-9 2,-13 1,-4 3,-8 6,-11 3,-3 6,-6 10,-8 4,-2 9,-3 14,-3 8,0 15,2 20,6 5,4 9,9 11,15 3,7 5,13 6,20 1,8 1,15 1,21 0,18 -2,36 -6,54 -5,18 -10,36 -18,53 -7,18 -15,34 -25,49 -9,15 -19,28 -29,39 -11,12 -21,21 -31,27 -11,7 -21,10 -30,10 -8,0 -14,-2 -20,-5 -23,-15 -18,-60 -21,-84 -6,16 -12,30 -19,41 -6,12 -13,21 -19,27 -7,7 -13,12 -19,15 -6,3 -12,4 -17,4 -6,0 -11,-2 -16,-5 -5,-4 -9,-9 -13,-15 -3,-6 -6,-14 -8,-23 -2,-8 -3,-18 -3,-28 0,-12 1,-25 3,-39 2,-14 5,-28 8,-42 3,-14 6,-28 10,-41 4,-13 7,-25 10,-36 4,-11 7,-20 9,-27 3,-8 4,-13 5,-16 -12,0 -22,3 -31,8 -9,5 -16,11 -22,19 -6,8 -10,18 -13,28 -2,10 -4,20 -4,30 0,11 2,21 4,30 3,10 7,18 12,25 -4,6 -7,9 -10,11 -4,3 -7,4 -10,4 -4,0 -7,-2 -10,-4 -3,-2 -5,-6 -8,-10 -2,-4 -3,-9 -5,-14 -1,-6 -1,-12 -1,-18 0,-9 1,-18 2,-27 2,-10 4,-19 8,-28 3,-10 8,-19 14,-27 5,-9 12,-16 20,-23 9,-6 18,-11 29,-15 11,-4 23,-6 36,-6 7,0 13,1 18,3 5,3 9,6 12,10 3,4 5,8 6,13 1,5 2,10 2,15 0,5 -1,11 -2,18 -1,8 -3,16 -5,25 -2,9 -5,18 -8,29 -3,10 -6,20 -8,30 -3,11 -6,21 -9,31 -3,10 -6,20 -8,29 -2,9 -4,17 -5,25 -1,7 -2,13 -2,18 0,2 0,4 1,6 0,2 1,3 2,5 1,2 2,3 4,4 1,1 3,1 5,1 3,0 6,-1 10,-4 4,-3 9,-9 14,-17 5,-8 10,-19 16,-32 7,-14 13,-31 20,-52z"/>
   <path class="fil1" d="M598 345l-43 0 -115 -177c-3,-5 -6,-9 -8,-14l-1 0c1,5 2,16 2,33l0 158 -39 0 0 -241 47 0 111 173c5,7 8,12 9,15l1 0c-2,-7 -2,-18 -2,-33l0 -155 38 0 0 241zm207 0l-135 0 0 -241 130 0 0 34 -90 0 0 68 83 0 0 34 -83 0 0 71 95 0 0 34zm360 -241l-66 241 -46 0 -45 -169c-2,-7 -3,-15 -4,-23l-1 0c0,8 -1,16 -4,23l-46 169 -46 0 -67 -241 44 0 43 176c2,8 3,15 4,23l1 0c0,-5 2,-13 4,-23l50 -176 41 0 45 178c2,6 3,13 4,21l1 0c0,-5 1,-13 4,-22l42 -177 42 0zm34 231l0 -41c4,3 8,6 13,9 5,3 11,5 16,7 6,2 12,3 18,4 5,1 11,2 15,2 17,0 30,-3 38,-9 8,-5 12,-13 12,-24 0,-6 -1,-11 -4,-15 -3,-4 -6,-8 -11,-11 -5,-4 -11,-7 -18,-10 -6,-4 -14,-7 -21,-10 -8,-5 -16,-9 -23,-14 -7,-4 -13,-9 -18,-14 -6,-6 -10,-12 -13,-19 -3,-7 -4,-15 -4,-24 0,-11 2,-21 8,-29 5,-9 11,-16 20,-21 8,-5 18,-10 28,-12 11,-3 22,-4 33,-4 25,0 43,3 55,9l0 39c-14,-10 -31,-15 -53,-15 -6,0 -12,1 -18,2 -6,1 -11,3 -15,5 -5,3 -9,6 -12,10 -3,4 -4,9 -4,15 0,5 1,10 3,14 2,4 6,7 10,11 4,3 10,6 16,9 6,3 13,7 21,10 9,4 17,9 24,14 8,5 14,10 20,16 6,6 10,12 13,19 4,7 5,15 5,24 0,13 -2,23 -7,31 -5,9 -12,16 -20,21 -8,5 -18,9 -29,11 -11,3 -22,4 -34,4 -4,0 -9,0 -15,-1 -6,-1 -12,-2 -18,-3 -6,-1 -12,-2 -18,-4 -5,-2 -10,-4 -13,-6z"/>
  </g>
 </g>
</svg>
